<svg width="172" height="14" viewBox="0 0 172 14" fill="none" xmlns="http://www.w3.org/2000/svg">
<rect x="65" width="41" height="14" rx="7" fill="#BA9C7F"/>
<ellipse cx="40.5" cy="6.99951" rx="7.5" ry="7" fill="#D9D9D9"/>
<path d="M139 6.99951C139 10.8655 135.642 13.9995 131.5 13.9995C127.358 13.9995 124 10.8655 124 6.99951C124 3.13352 127.358 -0.000488281 131.5 -0.000488281C135.642 -0.000488281 139 3.13352 139 6.99951Z" fill="#D9D9D9"/>
<path d="M171.499 6.99957C171.499 10.8656 168.141 13.9996 163.999 13.9996C159.857 13.9996 156.499 10.8656 156.499 6.99957C156.499 3.13358 159.857 -0.000429153 163.999 -0.000429153C168.141 -0.000429153 171.499 3.13358 171.499 6.99957Z" fill="#D9D9D9"/>
<path d="M15 6.99957C15 10.8656 11.6421 13.9996 7.5 13.9996C3.35786 13.9996 0 10.8656 0 6.99957C0 3.13358 3.35786 -0.000429869 7.5 -0.000429869C11.6421 -0.000429869 15 3.13358 15 6.99957Z" fill="#D9D9D9"/>
</svg>
