<svg width="25" height="30" viewBox="0 0 25 30" fill="none" xmlns="http://www.w3.org/2000/svg">
<path d="M8.33333 3.75C5.46146 3.75 3.125 6.55375 3.125 10V20C3.125 23.4463 5.46146 26.25 8.33333 26.25H16.6667C19.5385 26.25 21.875 23.4463 21.875 20V10C21.875 6.55375 19.5385 3.75 16.6667 3.75H8.33333ZM8.33333 6.25H16.6667C18.3896 6.25 19.7917 7.9325 19.7917 10V20C19.7917 22.0675 18.3896 23.75 16.6667 23.75H8.33333C6.61042 23.75 5.20833 22.0675 5.20833 20V10C5.20833 7.9325 6.61042 6.25 8.33333 6.25ZM17.7083 7.5C17.4321 7.5 17.1671 7.6317 16.9718 7.86612C16.7764 8.10054 16.6667 8.41848 16.6667 8.75C16.6667 9.08152 16.7764 9.39946 16.9718 9.63388C17.1671 9.8683 17.4321 10 17.7083 10C17.9846 10 18.2496 9.8683 18.4449 9.63388C18.6403 9.39946 18.75 9.08152 18.75 8.75C18.75 8.41848 18.6403 8.10054 18.4449 7.86612C18.2496 7.6317 17.9846 7.5 17.7083 7.5ZM12.5 8.75C9.62812 8.75 7.29167 11.5538 7.29167 15C7.29167 18.4462 9.62812 21.25 12.5 21.25C15.3719 21.25 17.7083 18.4462 17.7083 15C17.7083 11.5538 15.3719 8.75 12.5 8.75ZM12.5 11.25C14.2229 11.25 15.625 12.9325 15.625 15C15.625 17.0675 14.2229 18.75 12.5 18.75C10.7771 18.75 9.375 17.0675 9.375 15C9.375 12.9325 10.7771 11.25 12.5 11.25Z" fill="#C7A17A"/>
</svg>
