<svg width="38" height="34" viewBox="0 0 38 34" fill="none" xmlns="http://www.w3.org/2000/svg">
<path d="M14.752 2.8335C8.35343 2.8335 3.16666 8.54167 3.16666 15.5835C3.16666 20.9857 6.22057 25.5986 10.5303 27.4563C10.4295 26.4478 10.3368 24.8999 10.5709 23.7996C10.7817 22.8051 11.9287 17.4616 11.9287 17.4616C11.9287 17.4616 11.5823 16.6978 11.5823 15.5695C11.5823 13.7959 12.5161 12.4738 13.6781 12.4738C14.6663 12.4738 15.1436 13.291 15.1436 14.269C15.1436 15.3629 14.5111 16.9987 14.1843 18.5134C13.9109 19.7833 14.7625 20.8174 15.9001 20.8174C17.9589 20.8174 19.5414 18.428 19.5414 14.9791C19.5414 11.9268 17.5487 9.79245 14.7022 9.79245C11.4062 9.79245 9.47142 12.5133 9.47142 15.3259C9.47142 16.4212 9.8549 17.5967 10.3334 18.2355C10.4284 18.3617 10.4411 18.4726 10.4133 18.6014C10.3253 19.0043 10.1306 19.87 10.0924 20.0473C10.0426 20.2806 9.92441 20.3303 9.70544 20.2168C8.25843 19.4748 7.35362 17.1466 7.35362 15.2775C7.35362 11.2561 10.009 7.5612 15.0092 7.5612C19.0282 7.5612 22.1516 10.713 22.1516 14.9256C22.1516 19.3205 19.6341 22.8561 16.14 22.8561C14.9664 22.8561 13.8623 22.1842 13.4846 21.3924C13.4846 21.3924 12.903 23.8264 12.7628 24.4243C12.501 25.531 11.7954 26.9208 11.3228 27.7674C12.406 28.1333 13.5576 28.3335 14.752 28.3335C21.1495 28.3335 26.3374 22.624 26.3374 15.5835C26.3374 8.54295 21.1506 2.8335 14.752 2.8335Z" fill="#C7A17A"/>
</svg>
